<svg xmlns="http://www.w3.org/2000/svg" width="64" height="62" fill="none" viewBox="0 0 64 62"><path fill="#00424a" d="M30.098 1.854c.599-1.843 3.205-1.843 3.804 0l6.18 19.021a2 2 0 0 0 1.903 1.382h20c1.937 0 2.743 2.48 1.175 3.618L46.98 37.631a2 2 0 0 0-.727 2.236l6.18 19.022c.6 1.842-1.51 3.374-3.077 2.236l-16.18-11.756a2 2 0 0 0-2.352 0l-16.18 11.756c-1.568 1.138-3.676-.394-3.078-2.236l6.18-19.022a2 2 0 0 0-.726-2.236L.84 25.875c-1.568-1.138-.762-3.618 1.175-3.618h20a2 2 0 0 0 1.902-1.382z"/></svg>